<svg width="37" height="11" viewBox="0 0 37 11" fill="none" xmlns="http://www.w3.org/2000/svg">
<path d="M34.7696 4.81076C34.6255 4.65978 34.4976 4.52632 34.3707 4.39219C33.3607 3.32774 32.3504 2.26396 31.3414 1.1982C31.0161 0.85462 31.0732 0.331319 31.458 0.0918029C31.6889 -0.0519066 32.0023 -0.0267987 32.2019 0.166466C32.3824 0.34123 32.5526 0.528217 32.7262 0.711241C34.0758 2.1338 35.4252 3.55669 36.7745 4.97958C37.076 5.29739 37.075 5.70341 36.7726 6.02222C35.2663 7.61029 33.7599 9.19836 32.2536 10.7864C31.9177 11.1406 31.3809 11.0405 31.1844 10.5882C31.0716 10.3285 31.129 10.0292 31.3377 9.80822C31.6968 9.42797 32.0574 9.04904 32.4175 8.66944C33.1837 7.8617 33.9498 7.05395 34.7157 6.24621C34.7285 6.23266 34.7405 6.21812 34.7655 6.18905H34.6637C32.2122 6.18905 3.19639 6.18905 0.744953 6.18971C0.610207 6.18971 0.479221 6.1798 0.357323 6.11274C0.0872039 5.96374 -0.0525559 5.64593 0.0182641 5.34133C0.0919044 5.02484 0.347295 4.81572 0.665672 4.81506C1.32624 4.81406 1.98681 4.81506 29.2115 4.81506C31.034 4.81506 32.8562 4.81506 34.6787 4.81506C34.7013 4.81506 34.7235 4.81307 34.7696 4.81076Z" fill="#FF5F57"/>
</svg>
