<svg width="18" height="18" viewBox="0 0 18 18" fill="none" xmlns="http://www.w3.org/2000/svg">
<path d="M0 9.00003C0 4.02158 3.86338 0.0129621 8.55376 3.10969e-05C13.2812 -0.0128999 17.1569 4.00865 17.1692 8.97417C17.1816 13.9655 13.3058 17.9871 8.60313 18C3.90041 18.013 0.0123431 14.0043 0 9.00003ZM15.4412 9.32331C15.4412 5.04313 12.3801 1.81038 8.57844 1.81038C4.80146 1.81038 1.72803 5.0302 1.72803 9.00003C1.72803 10.9785 2.4069 12.6854 3.73995 14.0819C5.07301 15.4785 6.70229 16.1897 8.57844 16.1897C10.4669 16.1897 12.1086 15.4655 13.4416 14.0561C14.7747 12.6595 15.4165 10.9655 15.4412 9.32331Z" fill="#FBFBFB"/>
<path d="M12.9355 5.79312C12.5282 6.1164 12.1208 6.43968 11.7012 6.75002C11.6642 6.6983 11.6271 6.64657 11.6024 6.60778C11.047 5.84485 10.3434 5.32761 9.4424 5.1595C8.39324 4.96554 7.46751 5.23709 6.65286 5.93537C6.02337 6.47847 5.62839 7.17675 5.41856 8.00433C5.29512 8.46985 5.28278 8.9483 5.31981 9.43968C5.39387 10.2026 5.66542 10.888 6.12211 11.4957C6.66521 12.2069 7.36876 12.6854 8.24512 12.8405C8.91165 12.9569 9.55349 12.8793 10.1706 12.5948C10.5903 12.4009 10.9606 12.1293 11.2815 11.7802C11.4173 11.638 11.5284 11.4698 11.6518 11.3147C11.6642 11.2888 11.6765 11.2759 11.7012 11.25C12.1085 11.5733 12.5158 11.8836 12.9355 12.2069C12.8861 12.2716 12.8491 12.3233 12.8121 12.388C12.3677 12.9569 11.8493 13.4354 11.2198 13.7845C10.6397 14.1078 10.0225 14.3147 9.36834 14.3793C9.08445 14.4052 8.80056 14.4181 8.51667 14.4052C7.7514 14.3535 7.02316 14.1336 6.35663 13.7328C6.03571 13.5388 5.72713 13.319 5.45558 13.0604C5.03592 12.6724 4.69031 12.2198 4.41877 11.7155C4.09785 11.1466 3.90036 10.5647 3.80161 9.94399C3.76458 9.75002 3.75224 9.54312 3.72755 9.33623C3.71521 9.19399 3.71521 9.05174 3.71521 8.92243C3.72755 8.18537 3.86333 7.48709 4.14722 6.81468C4.36939 6.29743 4.65328 5.83192 5.01123 5.40519C5.4309 4.90088 5.93696 4.50002 6.50475 4.18968C6.89973 3.96985 7.31939 3.81468 7.76374 3.71123C8.02295 3.6595 8.26981 3.62071 8.52901 3.60778C8.65244 3.60778 8.77587 3.59485 8.8993 3.59485C9.67692 3.60778 10.4298 3.78881 11.1211 4.16381C11.5531 4.39657 11.948 4.69399 12.306 5.04312C12.5282 5.26295 12.7133 5.48278 12.8985 5.7414C12.9108 5.75433 12.9108 5.76726 12.9355 5.79312Z" fill="#FBFBFB"/>
</svg>
