<svg width="18" height="18" viewBox="0 0 18 18" fill="none" xmlns="http://www.w3.org/2000/svg">
<path d="M0 14.3503C0 10.6501 0 6.94992 0 3.24973C0.012457 3.19793 0.0268809 3.14677 0.0367153 3.09465C0.320931 1.59108 1.20177 0.60104 2.69038 0.144468C2.9228 0.0730385 3.16932 0.0469763 3.40928 0C7.10278 0 10.7959 0 14.4894 0C14.6556 0.0283145 14.8228 0.0518027 14.9877 0.085587C16.6855 0.434692 17.8922 1.89192 17.9043 3.61653C17.9115 4.61366 17.9056 5.61078 17.9056 6.6079C17.9056 9.05774 17.9092 11.5076 17.904 13.9574C17.9007 15.5784 16.8864 16.9456 15.3342 17.4273C15.0811 17.5058 14.815 17.5434 14.555 17.6H3.34372C3.30766 17.5901 3.27193 17.5762 3.23521 17.5708C1.7984 17.3594 0.797247 16.5936 0.248156 15.2776C0.126209 14.9842 0.0806426 14.6602 0 14.3503ZM2.84675 8.7997C2.8438 8.7997 2.84052 8.7997 2.83757 8.7997C2.83757 9.72217 2.83298 10.6443 2.83855 11.5668C2.84937 13.3281 4.31274 14.7943 6.09081 14.8062C7.99739 14.8188 9.90429 14.8178 11.8109 14.8062C13.588 14.7956 15.0697 13.3184 15.072 11.5732C15.0746 9.73375 15.0733 7.8946 15.07 6.05512C15.07 5.88427 15.0566 5.71116 15.0264 5.54321C14.736 3.92188 13.3798 2.80088 11.7024 2.79413C10.8336 2.79059 9.96493 2.79284 9.09622 2.7938C8.0636 2.79477 7.03033 2.77128 5.99869 2.80442C4.337 2.85751 2.93395 4.19634 2.85494 5.82442C2.80676 6.81414 2.84609 7.80805 2.84609 8.80002L2.84675 8.7997Z" fill="#FAFAFA" fill-opacity="0.5"/>
</svg>
