<svg width="18" height="18" viewBox="0 0 18 18" fill="none" xmlns="http://www.w3.org/2000/svg">
<path d="M11.9386 5.8667C13.126 5.8667 14.2647 6.33027 15.1043 7.15543C15.9439 7.98059 16.4156 9.09975 16.4156 10.2667V15.4H13.4309V10.2667C13.4309 9.87772 13.2737 9.50467 12.9938 9.22961C12.714 8.95456 12.3344 8.80004 11.9386 8.80004C11.5428 8.80004 11.1632 8.95456 10.8834 9.22961C10.6035 9.50467 10.4463 9.87772 10.4463 10.2667V15.4H7.46161V10.2667C7.46161 9.09975 7.93329 7.98059 8.77289 7.15543C9.61248 6.33027 10.7512 5.8667 11.9386 5.8667Z" fill="#FAFAFA" fill-opacity="0.5"/>
<path d="M4.47697 6.60004H1.49231V15.4001H4.47697V6.60004Z" fill="#FAFAFA" fill-opacity="0.5"/>
<path d="M2.98464 4.40002C3.80883 4.40002 4.47697 3.74337 4.47697 2.93335C4.47697 2.12333 3.80883 1.46667 2.98464 1.46667C2.16045 1.46667 1.49231 2.12333 1.49231 2.93335C1.49231 3.74337 2.16045 4.40002 2.98464 4.40002Z" fill="#FAFAFA" fill-opacity="0.5"/>
</svg>
