<svg width="14" height="14" viewBox="0 0 14 14" fill="none" xmlns="http://www.w3.org/2000/svg">
<path d="M1.46028 5.53246H4.80354C5.20202 5.53246 5.53246 5.20202 5.53246 4.80355V1.54775C5.53246 0.750804 6.1253 0.041327 6.92225 0.00245175C7.76779 -0.0461423 8.46754 0.634175 8.46754 1.46027V4.80355C8.46754 5.20202 8.79798 5.53246 9.19646 5.53246H12.4523C13.2492 5.53246 13.9587 6.12531 13.9975 6.92225C14.0461 7.76779 13.3658 8.46754 12.5397 8.46754H9.19646C8.79798 8.46754 8.46754 8.79798 8.46754 9.19645V12.4523C8.46754 13.2492 7.8747 13.9587 7.07775 13.9975C6.23221 14.0461 5.53246 13.3658 5.53246 12.5397V9.19645C5.53246 8.79798 5.20202 8.46754 4.80354 8.46754H1.54774C0.750798 8.46754 0.041327 7.87469 0.00245175 7.07775C-0.0461424 6.23221 0.634175 5.53246 1.46028 5.53246Z" fill="white"/>
</svg>
