<svg width="14" height="36" viewBox="0 0 14 36" fill="none" xmlns="http://www.w3.org/2000/svg">
<path d="M13.6146 33.1099C10.4292 33.0179 9.66718 32.2857 9.65847 29.2852C9.65194 27.4443 9.67154 25.6035 9.64976 23.7627C9.61928 21.1693 9.07714 18.8539 5.70669 18.0562C7.66407 17.4754 8.9748 16.5386 9.33841 14.7735C9.51042 13.9431 9.62146 13.0902 9.64106 12.2434C9.68678 10.2328 9.62146 8.22022 9.67371 6.20965C9.73686 3.86978 10.562 3.10482 13.0115 2.96779C13.1879 2.95756 13.5624 2.94733 13.9978 2.93711V0C12.0317 0.124766 9.81306 0.27203 8.46314 0.72405C7.43981 1.06767 6.67558 1.88171 6.42084 2.8737C6.07247 4.22771 6.14868 5.60627 6.11166 6.97869C6.05723 9.05471 6.07683 11.1369 5.92224 13.2067C5.78725 14.9944 4.85536 16.0232 3.19409 16.3873C2.80435 16.4732 2.40373 16.5018 2.00311 16.5018H0L0 19.5125H1.94215C2.4255 19.5125 2.91104 19.5657 3.37263 19.6966C4.80093 20.1077 5.61959 21.0322 5.89611 22.5417C6.02457 23.2432 6.08118 23.9632 6.09424 24.675C6.13561 26.8901 6.09642 29.1072 6.16827 31.3203C6.22706 33.1161 6.81711 34.7094 8.77014 35.4396C9.63017 35.7627 11.8619 35.9223 13.9978 36V33.112C13.7932 33.112 13.6538 33.1099 13.6124 33.1079L13.6146 33.1099Z" fill="#FF5F57"/>
</svg>
