<svg width="18" height="18" viewBox="0 0 18 18" fill="none" xmlns="http://www.w3.org/2000/svg">
<path fill-rule="evenodd" clip-rule="evenodd" d="M3.61805 -0.00012207H14.2901C16.2882 -0.00012207 17.908 1.59183 17.908 3.5556V14.0442C17.908 16.008 16.2882 17.5999 14.2901 17.5999H3.61805C1.61992 17.5999 0.00012207 16.008 0.00012207 14.0442V3.5556C0.00012207 1.59183 1.61992 -0.00012207 3.61805 -0.00012207ZM14.959 2.84538C14.9773 2.8249 14.9972 2.80261 15.0198 2.77767L15.0186 2.77877C14.9979 2.77421 14.9804 2.76958 14.9651 2.76552C14.9377 2.75825 14.9171 2.75279 14.8966 2.75279C14.6721 2.7519 14.4479 2.75243 14.2236 2.75296C14.1674 2.7531 14.1112 2.75323 14.0549 2.75334C14.0009 2.75334 13.9526 2.76716 13.9132 2.80863C13.8513 2.87415 13.7887 2.93926 13.7261 3.00436C13.6635 3.06947 13.6009 3.13457 13.5391 3.20009C13.4458 3.29863 13.353 3.3976 13.2602 3.49658C13.1441 3.6203 13.0281 3.74402 12.9112 3.86689C12.7634 4.02262 12.6146 4.17739 12.4657 4.33221C12.3619 4.44015 12.2581 4.5481 12.1546 4.65644C12.0634 4.75182 11.9727 4.84762 11.882 4.94341C11.7913 5.0392 11.7006 5.13498 11.6094 5.23035C11.5376 5.30546 11.4654 5.38033 11.3932 5.4552C11.28 5.57267 11.1667 5.69016 11.0547 5.80869C10.9804 5.88752 10.9072 5.96747 10.834 6.04742C10.7526 6.13625 10.6713 6.22508 10.5884 6.31238C10.4334 6.47559 10.2773 6.63761 10.1212 6.79962C10.017 6.90764 9.91293 7.01567 9.80919 7.12405C9.68261 7.25619 9.66854 7.25453 9.56109 7.11022C9.41722 6.91781 9.27118 6.72668 9.12526 6.5357C9.10513 6.50936 9.08501 6.48303 9.0649 6.45669C9.02181 6.40023 8.97843 6.34396 8.93503 6.28768C8.87475 6.20949 8.81446 6.13129 8.75492 6.05252C8.68798 5.96401 8.62135 5.8751 8.55468 5.78613C8.46557 5.66723 8.37639 5.54823 8.28629 5.42995C8.214 5.33485 8.14073 5.2403 8.06745 5.14576C7.99418 5.05121 7.9209 4.95666 7.84861 4.86156C7.69311 4.65739 7.53813 4.4527 7.38318 4.24807C7.25784 4.08254 7.13253 3.91705 7.007 3.75189C6.93889 3.66248 6.87038 3.57327 6.80184 3.48403C6.64447 3.27915 6.48699 3.07412 6.33416 2.86613C6.27059 2.77988 6.19914 2.75002 6.09506 2.75002C5.22447 2.75187 4.35348 2.75179 3.48275 2.75171C3.30862 2.7517 3.1345 2.75168 2.96039 2.75168C2.9183 2.75168 2.8762 2.75127 2.83411 2.75086C2.75694 2.7501 2.67976 2.74934 2.60259 2.75113C2.5739 2.75224 2.5334 2.76329 2.52158 2.7832C2.51146 2.79923 2.53058 2.83959 2.54746 2.86171C2.61082 2.94592 2.67513 3.02918 2.7394 3.11238C2.78527 3.17177 2.83111 3.23112 2.87657 3.29076C3.01188 3.46881 3.14676 3.64699 3.28165 3.82518C3.41652 4.00334 3.55139 4.1815 3.68668 4.35953C3.8253 4.54191 3.96428 4.72394 4.10322 4.90592C4.21237 5.04889 4.3215 5.19181 4.4304 5.33485C4.69067 5.67652 4.95043 6.01868 5.21019 6.36083C5.34011 6.53195 5.47002 6.70308 5.6 6.87413C5.70689 7.01485 5.81406 7.15529 5.92123 7.29572C6.0284 7.43616 6.13557 7.5766 6.24246 7.71731C6.33961 7.84505 6.43682 7.97279 6.53404 8.10053C6.72843 8.35595 6.92281 8.61138 7.1167 8.8668C7.25059 9.04373 7.38449 9.22066 7.51725 9.39814C7.56563 9.46228 7.56451 9.48218 7.50938 9.54079C7.27872 9.78628 7.04807 10.0312 6.81572 10.275C6.73761 10.3573 6.65844 10.4384 6.57931 10.5196C6.5057 10.595 6.43213 10.6705 6.35947 10.7467C6.19642 10.9177 6.03402 11.0891 5.87166 11.2606C5.7332 11.4068 5.59477 11.553 5.45598 11.6988C5.35009 11.8099 5.24377 11.9206 5.13745 12.0314C5.00086 12.1737 4.86427 12.316 4.72857 12.459C4.55755 12.639 4.38696 12.8194 4.21636 12.9997C4.04575 13.1801 3.87515 13.3605 3.70412 13.5405C3.46958 13.7869 3.23438 14.0328 2.99921 14.2788C2.85757 14.4269 2.71594 14.575 2.57447 14.7232C2.55815 14.7403 2.54184 14.7596 2.53115 14.7807C2.51652 14.8105 2.52665 14.8354 2.56096 14.8442C2.57728 14.8481 2.59528 14.8492 2.61272 14.8492C2.72474 14.849 2.83686 14.8486 2.94899 14.8482C3.11729 14.8476 3.28563 14.847 3.45377 14.847C3.51397 14.847 3.56066 14.826 3.60117 14.7818C3.66667 14.7107 3.73345 14.6413 3.8003 14.5717C3.82244 14.5487 3.84459 14.5257 3.8667 14.5025C3.99502 14.3676 4.12355 14.2329 4.25207 14.0982C4.41373 13.9288 4.57535 13.7594 4.73644 13.5897C4.87119 13.4476 5.00587 13.3053 5.14055 13.1629C5.36629 12.9244 5.59206 12.6859 5.81828 12.448C5.99786 12.2589 6.17808 12.0706 6.35826 11.8823C6.519 11.7144 6.67971 11.5465 6.83991 11.3781C7.11693 11.0873 7.39332 10.7962 7.66978 10.5049C7.76388 10.4058 7.85798 10.3067 7.95212 10.2076C8.04889 10.1064 8.06408 10.107 8.15015 10.2137C8.15786 10.2231 8.16478 10.2329 8.17163 10.2425C8.17478 10.2469 8.17791 10.2513 8.18109 10.2557C8.20669 10.2898 8.23217 10.3241 8.25767 10.3584C8.31062 10.4296 8.36364 10.5009 8.41794 10.5714C8.49202 10.6676 8.5668 10.7634 8.6416 10.8592C8.73095 10.9736 8.82031 11.0881 8.9085 11.2034C9.17798 11.5556 9.44576 11.9089 9.71299 12.2627C9.9051 12.5171 10.0968 12.7717 10.2885 13.0263C10.4802 13.2809 10.6719 13.5355 10.864 13.7899C10.9516 13.9057 11.04 14.021 11.1284 14.1363C11.2761 14.329 11.4238 14.5216 11.5678 14.7171C11.6392 14.8144 11.7186 14.8498 11.8406 14.8498C12.6685 14.8473 13.4964 14.8482 14.3243 14.849C14.6255 14.8493 14.9267 14.8496 15.2279 14.8498C15.2308 14.8498 15.2337 14.8498 15.2366 14.8498C15.2687 14.8498 15.3011 14.8499 15.3326 14.8448C15.3832 14.8365 15.3972 14.81 15.3798 14.763C15.3742 14.7469 15.3646 14.732 15.3545 14.7182L15.3528 14.716C15.2229 14.5464 15.0929 14.3769 14.9624 14.2073C14.9054 14.1333 14.8482 14.0594 14.791 13.9855C14.6384 13.788 14.4857 13.5905 14.3351 13.3918C14.2236 13.2444 14.1131 13.0963 14.0026 12.9483C13.8852 12.7909 13.7679 12.6337 13.6493 12.4773C13.5625 12.3631 13.4744 12.2499 13.3863 12.1367C13.3105 12.0394 13.2348 11.9421 13.1599 11.8442C12.836 11.4208 12.5132 10.9963 12.1904 10.5719L12.19 10.5714C12.1397 10.5052 12.0893 10.4389 12.039 10.3727C11.8041 10.0636 11.5694 9.75476 11.3355 9.44514C11.2287 9.304 11.1225 9.16262 11.0163 9.02128C10.8958 8.86085 10.7753 8.70049 10.6542 8.54059C10.5517 8.40566 10.4484 8.27131 10.345 8.13691C10.3048 8.0846 10.2646 8.0323 10.2244 7.97994C10.1681 7.90641 10.1692 7.89314 10.2351 7.82292C10.2473 7.81008 10.2588 7.79668 10.2702 7.78335C10.2814 7.77028 10.2926 7.75728 10.3043 7.74496C10.5564 7.47927 10.8088 7.21382 11.0612 6.94846C11.1916 6.81125 11.3221 6.67405 11.4525 6.53686L12.6508 5.27624C12.8351 5.08239 13.0191 4.88841 13.2031 4.69442C13.387 4.50054 13.5709 4.30667 13.7551 4.11293C13.9026 3.95811 14.0501 3.80337 14.1977 3.64866C14.4216 3.41384 14.6455 3.17907 14.869 2.94409C14.898 2.91379 14.9259 2.88257 14.959 2.84538ZM5.00535 3.54399V3.54676C5.07754 3.54676 5.14968 3.54694 5.2218 3.54712C5.40205 3.54757 5.58217 3.54802 5.76258 3.54565C5.84865 3.54455 5.90604 3.5744 5.95667 3.64296C6.11549 3.85913 6.27833 4.07222 6.44121 4.28537C6.46122 4.31156 6.48123 4.33775 6.50124 4.36395C6.64302 4.54974 6.78536 4.73525 6.92771 4.92077C7.07003 5.10625 7.21235 5.29174 7.35411 5.4775C7.44837 5.6011 7.54215 5.72507 7.63595 5.84905C7.7448 5.99294 7.85368 6.13687 7.96338 6.28032C8.10088 6.45988 8.23867 6.63925 8.37648 6.81863C8.56794 7.06786 8.75942 7.31711 8.95013 7.56692C9.072 7.72662 9.19295 7.88685 9.31393 8.0471C9.40573 8.16871 9.49755 8.29034 9.58978 8.41176C9.71476 8.57645 9.84026 8.74064 9.9658 8.90488C10.0674 9.03783 10.1691 9.17083 10.2705 9.30415C10.3988 9.47293 10.5269 9.64188 10.655 9.81084C10.8471 10.0642 11.0392 10.3175 11.2319 10.5703C11.3097 10.6723 11.3888 10.7732 11.4678 10.8741C11.5426 10.9696 11.6174 11.0651 11.691 11.1614C11.7821 11.2807 11.8723 11.4009 11.9624 11.521C12.0364 11.6197 12.1104 11.7183 12.1849 11.8165C12.2731 11.9323 12.3618 12.0475 12.4505 12.1627C12.5096 12.2395 12.5687 12.3163 12.6277 12.3932C12.806 12.6271 12.9844 12.861 13.1627 13.0954C13.2675 13.233 13.3722 13.3707 13.4769 13.5084C13.5818 13.6463 13.6866 13.7842 13.7917 13.922C13.7956 13.9271 13.8 13.9318 13.8044 13.9366C13.8121 13.9448 13.8196 13.9529 13.8243 13.9624C13.8412 13.9961 13.8327 14.0254 13.7939 14.0348C13.7641 14.0425 13.732 14.0425 13.7005 14.0425C13.5381 14.0427 13.3758 14.0424 13.2134 14.0421C12.8886 14.0415 12.5638 14.0409 12.2389 14.0442C12.1242 14.0453 12.0471 14.0066 11.9813 13.9192C11.7149 13.5669 11.4471 13.2153 11.1793 12.8639C11.0777 12.7306 10.9762 12.5973 10.8747 12.464C10.7614 12.3149 10.6478 12.166 10.5341 12.017C10.3977 11.8383 10.2613 11.6595 10.1254 11.4804C10.0431 11.3719 9.96114 11.2631 9.87922 11.1543C9.7612 10.9975 9.64317 10.8407 9.52396 10.6847C9.4351 10.5681 9.34496 10.4526 9.25482 10.3371C9.1766 10.2368 9.09838 10.1366 9.02102 10.0356C8.88041 9.85182 8.74057 9.66743 8.60071 9.48303C8.49994 9.35018 8.39917 9.21731 8.29811 9.08464C8.1286 8.86241 7.95889 8.64055 7.78922 8.41875C7.67058 8.26365 7.55196 8.10857 7.43343 7.9534C7.32738 7.81435 7.22176 7.67502 7.11614 7.53568C7.01051 7.39635 6.90489 7.25702 6.79884 7.11797C6.69308 6.97863 6.58689 6.83972 6.48071 6.7008C6.37452 6.56188 6.26834 6.42297 6.16257 6.28363C6.06545 6.15553 5.96889 6.02698 5.87234 5.89843C5.75471 5.7418 5.63707 5.58518 5.51842 5.4294C5.42566 5.30756 5.33157 5.18674 5.23751 5.06597C5.14845 4.95163 5.05943 4.83732 4.9716 4.72223C4.84214 4.55259 4.71371 4.38214 4.58531 4.21174C4.50113 4.10001 4.41695 3.98829 4.33251 3.87684C4.30747 3.84361 4.28142 3.81115 4.25537 3.77868C4.22289 3.7382 4.19039 3.69771 4.1598 3.65568C4.14293 3.63301 4.12661 3.5932 4.13617 3.57385C4.14518 3.5556 4.18849 3.5451 4.21662 3.5451C4.41369 3.54344 4.61107 3.54365 4.8083 3.54386C4.87401 3.54392 4.9397 3.54399 5.00535 3.54399Z" fill="#FAFAFA" fill-opacity="0.5"/>
</svg>
